<svg width="78" height="78" viewBox="0 0 78 78" fill="none" xmlns="http://www.w3.org/2000/svg">
<g id="GraduationCap-r">
<g id="Vector">
<path fill-rule="evenodd" clip-rule="evenodd" d="M37.8529 50.9007L1.29044 31.4007C0.720035 31.0965 0.293838 30.5782 0.105612 29.9597C-0.0826147 29.3413 -0.0174506 28.6734 0.286768 28.1029C0.514352 27.6762 0.863727 27.3268 1.29044 27.0993L37.8529 7.59926C38.5699 7.21691 39.4301 7.21691 40.1471 7.59926L76.7096 27.0993C77.28 27.4035 77.7062 27.9218 77.8944 28.5403C78.0826 29.1588 78.0175 29.8266 77.7132 30.3971C77.4857 30.8238 77.1363 31.1732 76.7096 31.4007L40.1471 50.9007C39.4301 51.2831 38.5699 51.2831 37.8529 50.9007ZM7.61719 29.25L39 45.9875L70.3828 29.25L39 12.5125L7.61719 29.25Z" fill="#1D94F8"/>
<path d="M58.4283 36.8493L40.1471 27.0993C39.794 26.911 39.4001 26.8125 39 26.8125C38.9276 26.8125 38.8553 26.8157 38.7832 26.8222C37.9637 26.8953 37.2364 27.377 36.8493 28.1029C36.661 28.456 36.5625 28.8499 36.5625 29.25C36.5625 29.3224 36.5657 29.3947 36.5722 29.4668C36.6453 30.2863 37.127 31.0136 37.8529 31.4007L54.8438 40.4625V73.125C54.8438 74.4712 55.9351 75.5625 57.2812 75.5625C58.6274 75.5625 59.7188 74.4712 59.7188 73.125V39C59.7188 38.0998 59.2226 37.2729 58.4283 36.8493Z" fill="#1D94F8"/>
<path d="M13.4062 50.3957V33.79C13.4062 32.4438 12.3149 31.3525 10.9688 31.3525C9.62256 31.3525 8.53125 32.4438 8.53125 33.79V50.4259C8.5381 52.0524 9.51877 53.337 9.51877 53.337C12.8983 57.8769 18.379 61.3185 18.379 61.3185C27.4767 67.0314 39 67.0314 39 67.0314C50.5233 67.0314 59.621 61.3185 59.621 61.3185C65.1017 57.8769 68.4989 53.3135 68.4989 53.3135C69.4619 52.0523 69.4687 50.4362 69.4687 50.4362L69.4688 33.79C69.4688 32.4438 68.3774 31.3525 67.0312 31.3525C65.6851 31.3525 64.5938 32.4438 64.5938 33.79L64.5938 50.4143C64.5937 50.401 64.5912 50.4005 64.5912 50.4005L64.5885 50.4024C61.7363 54.2337 57.0286 57.19 57.0286 57.19C49.1196 62.1564 39 62.1564 39 62.1564C28.8804 62.1564 20.9714 57.19 20.9714 57.19C16.2739 54.2402 13.4062 50.3957 13.4062 50.3957Z" fill="#1D94F8"/>
</g>
</g>
</svg>
